<?xml version="1.0" encoding="UTF-8" standalone="no" ?>
<!DOCTYPE svg PUBLIC "-//W3C//DTD SVG 1.1//EN" "http://www.w3.org/Graphics/SVG/1.1/DTD/svg11.dtd">
<svg xmlns="http://www.w3.org/2000/svg" xmlns:xlink="http://www.w3.org/1999/xlink" version="1.1" width="1080" height="1080" viewBox="0 0 1080 1080" xml:space="preserve">
<desc>Created with Fabric.js 5.2.4</desc>
<defs>
</defs>
<rect x="0" y="0" width="100%" height="100%" fill="transparent"></rect>
<g transform="matrix(1 0 0 1 540 540)" id="782ba122-4ea2-433c-a753-144812987e2b"  >
<rect style="stroke: none; stroke-width: 1; stroke-dasharray: none; stroke-linecap: butt; stroke-dashoffset: 0; stroke-linejoin: miter; stroke-miterlimit: 4; fill: rgb(255,255,255); fill-rule: nonzero; opacity: 1; visibility: hidden;" vector-effect="non-scaling-stroke"  x="-540" y="-540" rx="0" ry="0" width="1080" height="1080" />
</g>
<g transform="matrix(0 0 0 0 0 0)" id="6ea64afa-0088-4cc1-898e-afb5f17fceaf"  >
</g>
<g transform="matrix(14.58 0 0 14.58 540.84 540.78)" id="a630a3e6-7437-4b15-af11-54c6b4c48ff4"  >
<path style="stroke: rgb(0,0,0); stroke-width: 0; stroke-dasharray: none; stroke-linecap: butt; stroke-dashoffset: 0; stroke-linejoin: miter; stroke-miterlimit: 4; fill: rgb(0,0,0); fill-rule: nonzero; opacity: 1;" vector-effect="non-scaling-stroke"  transform=" translate(-49.5, -48.3)" d="M 51.991 79.943 C 49.254 82.682 44.739 82.682 41.954 79.943 L 15.349 53.339 C 12.612 50.554 12.612 46.039 15.349 43.302 L 41.954 16.697 C 44.739000000000004 13.911 49.254 13.911 51.991 16.697 C 55.592 20.49 47.717 31.104 44.019 40.611999999999995 L 81.04599999999999 40.611999999999995 C 83.591 40.611999999999995 85.702 42.72599999999999 85.702 45.270999999999994 L 85.702 52.425999999999995 C 85.702 55.019999999999996 83.591 57.132 81.04599999999999 57.132 L 44.451 57.132 C 48.293 66.115 55.304 75.718 51.991 79.943 z" stroke-linecap="round" />
</g>
</svg>